<mxfile host="app.diagrams.net" modified="2023-10-16T00:22:17.346Z" agent="Mozilla/5.0 (Windows NT 10.0; Win64; x64) AppleWebKit/537.36 (KHTML, like Gecko) Chrome/117.0.0.0 Safari/537.36" version="22.0.4" etag="cbuaIqmbn6gZj0tfa9N6" type="github">
  <diagram name="Page-1" id="h4AtTSDITz3Um2Aayl5n">
    <mxGraphModel>
      <root>
        <mxCell id="0" />
        <mxCell id="1" parent="0" />
      </root>
    </mxGraphModel>
  </diagram>
</mxfile>
